<svg width="66" height="49" viewBox="0 0 66 49" fill="none" xmlns="http://www.w3.org/2000/svg">
<path d="M3 47L33.2203 3L63 47H33.2203H3Z" fill="#FEE717" stroke="black" stroke-width="3"/>
<path d="M36 39C36 40.6569 35.6569 42 34.0001 42C32.3432 42 32 40.6569 32 39C32 37.3431 32.3432 36 34.0001 36C35.6569 36 36 37.3431 36 39Z" fill="black"/>
<path d="M33.9996 28.3213C32.9997 32.8213 35.6566 33.321 33.9996 33.321C32.3427 33.321 29.0002 30.3213 28 25.3213C28 20.903 28.9999 12.8213 35.0001 17.3212C41.0002 21.8211 34.9995 23.8213 33.9996 28.3213Z" fill="black"/>
</svg>
