<svg width="20" height="20" fill="none" xmlns="http://www.w3.org/2000/svg"><g clip-path="url(#ic_grid_new_svg__a)" fill="#9BA3AF"><path d="M15.833 3.333H4.167a.833.833 0 0 0-.834.834V8.45c0 .46.373.833.834.833h11.666c.46 0 .834-.373.834-.833V4.167a.833.833 0 0 0-.834-.834ZM15.833 10.783H4.167a.833.833 0 0 0-.834.834V15.9c0 .46.373.833.834.833h11.666c.46 0 .834-.373.834-.833v-4.283a.833.833 0 0 0-.834-.834Z"></path></g><defs><clipPath id="ic_grid_new_svg__a"><path fill="#fff" transform="translate(3.333 3.333)" d="M0 0h13.333v13.4H0z"></path></clipPath></defs></svg>